<svg width="109" height="115" viewBox="0 0 109 115" fill="none" xmlns="http://www.w3.org/2000/svg">
<path d="M0.960938 113.829V11.9983H21.3505L21.0786 36.1437L21.3505 66.0631C32.0677 58.6529 37.1753 52.4573 43.6768 35.2297C43.7126 35.1826 43.7014 35.1077 43.7344 35.0784C43.7903 35.0289 43.774 34.9623 43.8031 34.9504C43.8476 34.9321 43.9418 34.9329 43.9926 34.9388C44.02 34.9419 44.049 34.9478 44.0712 34.9517C44.093 34.9556 44.1216 34.9647 44.1597 34.9741L44.1717 34.977C44.2039 34.9849 44.2284 34.9909 44.2559 35.0009C44.3205 35.0245 44.3504 35.055 44.3935 35.0784C44.4223 35.0941 44.4408 35.1095 44.452 35.1261C44.454 35.1285 44.4563 35.1317 44.4588 35.1352C44.4687 35.1483 44.4786 35.1615 44.4884 35.1748C46.5083 37.9034 46.915 43.3463 48.5365 46.1168C62.5423 70.048 70.2606 84.1509 92.306 107.53C97.5701 110.926 100.895 112.803 107.258 112.254V113.829H47.1772V112.254C57.8876 112.194 61.3865 110.612 60.2265 105.693C60.1457 102.318 50.2328 88.0826 32.9348 64.158L32.2249 63.1761C27.4956 66.3159 24.5602 67.5585 21.8942 74.4615V105.955C22.0233 111.557 23.9606 113.027 31.1374 112.254V113.829H21.8942H0.960938Z" fill="#39271D"/>
<path d="M93.9647 18.0202C93.9647 27.4418 86.0532 35.0794 76.2938 35.0794C66.5344 35.0794 58.6229 27.4418 58.6229 18.0202C58.6229 8.59863 66.5344 0.960938 76.2938 0.960938C86.0532 0.960938 93.9647 8.59863 93.9647 18.0202Z" fill="#39271D"/>
<path d="M0.960938 113.829V11.9983H21.3505L21.0786 36.1437L21.3505 66.0631C32.0677 58.6529 37.1753 52.4573 43.6768 35.2297C43.7126 35.1826 43.7014 35.1077 43.7344 35.0784C43.7903 35.0289 43.774 34.9623 43.8031 34.9504C43.8476 34.9321 43.9418 34.9329 43.9926 34.9388C44.02 34.9419 44.049 34.9478 44.0712 34.9517C44.093 34.9556 44.1216 34.9647 44.1597 34.9741L44.1717 34.977C44.2039 34.9849 44.2284 34.9909 44.2559 35.0009C44.3205 35.0245 44.3504 35.055 44.3935 35.0784C44.4223 35.0941 44.4408 35.1095 44.452 35.1261C44.454 35.1285 44.4563 35.1317 44.4588 35.1352C44.4687 35.1483 44.4786 35.1615 44.4884 35.1748C46.5083 37.9034 46.915 43.3463 48.5365 46.1168C62.5423 70.048 70.2606 84.1509 92.306 107.53C97.5701 110.926 100.895 112.803 107.258 112.254V113.829H47.1772V112.254C57.8876 112.194 61.3865 110.612 60.2265 105.693C60.1457 102.318 50.2328 88.0826 32.9348 64.158L32.2249 63.1761C27.4956 66.3159 24.5602 67.5585 21.8942 74.4615V105.955C22.0233 111.557 23.9606 113.027 31.1374 112.254V113.829H21.8942H0.960938Z" fill="#39271D"/>
<path d="M93.9647 18.0202C93.9647 27.4418 86.0532 35.0794 76.2938 35.0794C66.5344 35.0794 58.6229 27.4418 58.6229 18.0202C58.6229 8.59863 66.5344 0.960938 76.2938 0.960938C86.0532 0.960938 93.9647 8.59863 93.9647 18.0202Z" fill="#39271D"/>
<path d="M21.3505 11.9983H0.960938V113.829H21.8942M21.3505 11.9983H39.565V13.2638C22.9597 11.0543 20.1756 18.5011 21.0786 36.1437M21.3505 11.9983L21.0786 36.1437M43.6768 35.2297C37.1753 52.4573 32.0677 58.6529 21.3505 66.0631L21.0786 36.1437M43.6768 35.2297C43.6599 35.252 43.646 35.6063 43.643 35.6188M43.6768 35.2297C43.7126 35.1826 43.7014 35.1077 43.7344 35.0784C43.7903 35.0289 43.774 34.9623 43.8031 34.9504C43.8476 34.9321 43.9418 34.9329 43.9926 34.9388C44.02 34.9419 44.049 34.9478 44.0712 34.9517C44.093 34.9556 44.1216 34.9647 44.1597 34.9741L44.1717 34.977C44.2039 34.9849 44.2284 34.9909 44.2559 35.0009M44.452 35.1261C44.4542 35.1291 44.4565 35.1321 44.4588 35.1352M44.452 35.1261C44.4408 35.1095 44.4223 35.0941 44.3935 35.0784C44.3504 35.055 44.3206 35.0245 44.2559 35.0009M44.452 35.1261C44.454 35.1285 44.4563 35.1317 44.4588 35.1352M44.4588 35.1352C44.4687 35.1483 44.4786 35.1615 44.4884 35.1748M44.4588 35.1352C44.4687 35.1491 44.4809 35.1689 44.4884 35.1748M44.4884 35.1748C46.5083 37.9034 46.915 43.3463 48.5365 46.1168C62.5423 70.048 70.2606 84.1509 92.306 107.53C97.5701 110.926 100.895 112.803 107.258 112.254V113.829H47.1772V112.254C57.8876 112.194 61.3865 110.612 60.2265 105.693C60.1457 102.318 50.2328 88.0826 32.9348 64.158L32.2249 63.1761C27.4956 66.3159 24.5602 67.5585 21.8942 74.4615V105.955M44.4884 35.1748C44.4934 35.1783 44.2394 34.9939 44.2559 35.0009M21.8942 113.829V105.955M21.8942 113.829H31.1374V112.254C23.9606 113.027 22.0233 111.557 21.8942 105.955M20.6658 12.9496C20.6794 12.9496 20.9482 12.9496 21.3635 12.945C21.5171 12.9404 21.5545 12.9312 21.7222 12.9247C21.89 12.9182 22.1869 12.9146 22.5167 12.8477M21.2927 21.7744C21.2927 21.5432 21.3804 20.8354 21.5211 20.4553C21.6248 20.1753 21.7184 20.0737 21.7838 19.9374C21.8982 19.6986 21.9356 19.5333 22.3999 18.7192C22.6287 18.3179 22.8903 17.8963 23.181 17.5252C23.3239 17.3427 23.4526 17.1738 23.7312 16.8484C24.1557 16.3527 24.4937 16.0411 24.6655 15.877C24.9963 15.5611 25.489 15.3798 25.6422 15.268C25.7687 15.1756 25.7017 15.0228 26.0729 14.8046C26.3776 14.6255 26.9247 14.3181 27.2534 14.1368L27.2951 14.1138C27.8798 13.7915 28.116 13.6613 28.1727 13.5984C28.2003 13.5677 28.2073 13.5284 28.1815 13.4962C28.1153 13.4138 27.9326 13.3882 27.6253 13.3564C27.089 13.3008 26.6996 13.3358 26.5597 13.2984C26.1257 13.1824 25.6203 13.1315 25.2645 13.1559C25.0438 13.1711 24.8473 13.218 24.5456 13.2264C23.8989 13.2445 23.3936 13.2801 23.1407 13.2967C22.7221 13.3242 22.399 13.2839 22.2817 13.2453C22.2283 13.2277 22.1834 13.2041 22.14 13.1792M22.14 13.1792C22.0537 13.1296 21.9735 13.0751 21.8439 13.0537M22.14 13.1792C22.3552 13.1565 22.6089 13.1329 22.9002 13.1186C23.655 13.0816 24.0312 13.0461 23.9266 13.0259C23.736 12.9892 23.5764 12.9357 23.4255 12.9368C22.9339 12.9405 22.6663 13.0818 22.4073 13.0804C22.2043 13.0794 21.9686 13.0638 21.8439 13.0537M22.14 13.1792C21.8792 13.2068 21.6748 13.2332 21.5285 13.2403C21.3874 13.2472 21.307 13.2581 21.239 13.2398C21.1749 13.2225 21.1958 13.0895 21.2087 12.9929C21.2141 12.9521 21.2473 12.9346 21.282 12.9248C21.4428 12.8791 21.728 12.9581 21.9444 12.921C22.1986 12.8773 22.5074 12.8352 23.2374 12.8321C23.4053 12.8226 23.5168 12.8002 23.6174 12.787C23.718 12.7738 23.8043 12.7706 23.8931 12.7672M21.8439 13.0537C21.822 13.05 21.7987 13.0474 21.7737 13.0458C21.732 13.0432 21.7668 13.0474 21.8439 13.0537ZM21.768 14.2943C21.768 14.2891 21.768 14.284 22.3556 14.2725C22.7334 14.2651 23.3541 14.2551 23.9235 14.2446M23.9235 14.2446C24.2396 14.2388 24.5399 14.2327 24.774 14.2268C25.5305 14.2078 25.6749 14.1803 25.72 14.1735C25.7278 14.1723 25.6879 14.1531 25.3578 14.1461C25.0973 14.1405 24.654 14.1393 23.9235 14.2446ZM23.9235 14.2446C23.7285 14.2727 23.5131 14.3084 23.2752 14.3536C22.146 14.5681 20.5298 14.9971 20.4148 15.1428C20.2997 15.2885 21.7346 15.1378 22.5047 15.0602C23.2747 14.9826 23.3362 14.9826 23.1807 15.0305C23.0252 15.0785 22.6508 15.1744 22.2578 15.3037C21.4552 15.5678 21.0029 15.7895 20.9284 15.8522C20.8785 15.8942 21.2424 15.9451 21.9157 15.9166C22.2522 15.9024 22.5726 15.815 22.8845 15.7257C23.1963 15.6364 23.4883 15.5289 23.6225 15.4724C23.7311 15.4267 23.2887 15.7596 22.6475 16.3246C22.5276 16.4302 22.4519 16.5026 22.3998 16.5568M22.3998 16.5568C22.3917 16.5652 22.3841 16.5733 22.377 16.5809M22.3998 16.5568C22.2965 16.6809 22.2527 16.7315 22.2868 16.6878M22.3998 16.5568C22.439 16.5097 22.4868 16.452 22.5421 16.3849M22.377 16.5809C22.3378 16.6232 22.3139 16.6534 22.292 16.6812C22.2901 16.6836 22.2884 16.6858 22.2868 16.6878M22.377 16.5809C22.4349 16.5123 22.4902 16.4466 22.5421 16.3849M22.377 16.5809C22.3476 16.6158 22.3175 16.6515 22.2868 16.6878M22.2868 16.6878C21.885 17.1636 21.3919 17.7445 21.0943 18.097C20.6862 18.5803 20.6692 18.6072 20.6692 18.6072C20.6692 18.6072 20.6868 18.5817 21.3937 17.9322C22.1006 17.2828 23.4962 16.0108 24.2292 15.3465C24.9623 14.6823 24.9905 14.6644 25.0672 14.6385M22.5421 16.3849C22.6548 16.2481 22.7989 16.0721 22.9657 15.8665C23.1146 15.683 23.0856 15.7357 22.6818 16.2183C22.6391 16.2694 22.5922 16.3252 22.5421 16.3849ZM25.5251 13.1973H26.1557C26.2676 13.1973 26.2108 13.1973 26.1523 13.1933C26.035 13.1852 25.7197 13.1098 25.2464 13.0128C25.1275 12.9884 25.0249 12.976 24.9394 12.9709M24.9394 12.9709C24.7487 12.9594 24.6423 12.9839 24.6271 12.9918C24.5991 13.0064 24.7204 12.9932 24.9394 12.9709ZM24.9394 12.9709C25.0688 12.9577 25.2323 12.9413 25.4193 12.9256C25.7281 12.8996 26.1488 12.9112 26.4262 12.9009C26.8269 12.8861 27.1301 12.8489 27.6236 12.8474C27.9388 12.8465 28.3856 12.8429 28.6476 12.8367C28.9095 12.8306 28.9731 12.8213 29.5928 12.8081C30.2125 12.795 31.3863 12.7781 32.3554 12.7728C33.3246 12.7675 34.0535 12.7742 34.4471 12.7759C34.8407 12.7776 34.8769 12.7741 35.154 12.7723C35.9478 12.7671 36.4452 12.8011 36.337 12.8505C36.2685 12.8817 36.2165 12.289 35.8539 12.3666C35.4913 12.4442 35.0565 12.7013 34.6716 12.7856C33.9176 12.9507 33.9226 12.4994 33.5842 12.5232C33.4377 12.5334 32.7904 12.7722 32.4967 12.7856C31.8329 12.8159 31.3754 12.2698 31.1374 12.2607C30.223 12.2258 29.7228 12.777 29.4272 12.8119C28.901 12.874 28.9318 13.6311 28.2567 13.8207C28.0264 13.8854 27.892 13.9474 27.5901 14.1021C26.9207 14.4451 25.6966 14.0945 25.5847 14.155C25.4119 14.2485 25.6097 15.0276 25.4284 14.8852C24.944 14.5049 24.17 14.0846 24.3409 14.3603M24.3409 14.3603C24.17 14.193 25.4442 15.1542 25.4284 15.1476C24.4707 14.7525 24.2213 14.4274 24.3409 14.3603ZM24.3409 14.3603C24.4766 14.2842 24.7461 14.2375 24.9394 14.1484C25.1819 14.0366 26.1007 13.8324 26.4262 13.5984C26.6023 13.4718 26.8218 12.3814 27.3314 12.2607C27.8305 12.1425 28.7932 12.9855 29.0934 12.9256C29.4558 12.8533 29.7003 12.9293 30.05 12.8474C30.5586 12.7283 31.6811 12.5232 31.6811 12.5232C31.6811 12.5232 31.7123 12.778 31.6811 12.778C31.4824 12.778 31.3129 12.4787 31.1374 12.5232C30.9935 12.5641 30.7252 13.1617 30.4237 13.2287M34.3149 12.7198C34.2291 12.2225 34.4206 12.7181 34.4856 12.7198M34.4856 12.7198C34.6265 12.7234 35.0874 12.3441 35.154 12.3666C35.2987 12.4157 34.7668 12.7619 34.4856 12.7198ZM34.4856 12.7198C34.3519 12.6998 34.2354 12.5279 34.1279 12.5232M34.1279 12.5232C34.0295 12.5188 34.8691 12.2592 35.2153 12.2607C35.8542 12.2634 36.637 12.4833 36.8903 12.5232C37.0491 12.5509 36.7143 12.2385 36.8465 12.2607C36.9787 12.2829 37.2621 11.8183 37.6556 12.5232M34.1279 12.5232C34.045 12.522 33.705 12.1949 33.705 12.7198M34.1279 12.5232C34.2108 12.5243 34.0586 12.5381 34.1279 12.5232ZM34.1279 12.5232C34.1971 12.5082 34.1612 12.554 34.1279 12.5232ZM36.3784 12.8776C36.3784 12.8821 36.8802 12.8844 37.6556 12.8817C38.0273 12.8803 38.1672 12.8437 38.3494 12.8342C38.4957 12.8122 38.5907 12.7946 38.6538 12.787C38.6874 12.7819 38.7244 12.7742 38.7914 12.7519M37.3902 12.8824C38.2169 12.1252 37.5553 12.7813 37.6621 12.7856C37.7173 12.7899 37.3342 12.2563 37.4684 12.2607C37.6026 12.2651 37.9222 12.246 38.2058 12.2608M38.6667 13.1178C38.6667 13.2134 38.688 12.8742 38.7495 13.0481M38.7495 13.0481C38.775 13.1587 38.74 13.1217 38.7495 13.0481ZM38.7495 13.0481C38.9349 11.619 38.7808 12.3145 38.7914 12.2972M93.9647 18.0202C93.9647 27.4418 86.0532 35.0795 76.2938 35.0795C66.5344 35.0795 58.6229 27.4418 58.6229 18.0202C58.6229 8.59863 66.5344 0.960938 76.2938 0.960938C86.0532 0.960938 93.9647 8.59863 93.9647 18.0202Z" stroke="#39271D" stroke-width="1.92229"/>
<path d="M44.251 34.6914C44.252 34.6914 44.2831 34.6914 44.3354 34.6928C44.3571 34.6934 44.3687 34.6971 44.387 34.7053C44.431 34.725 44.4582 34.743 44.4631 34.7477C44.4652 34.7501 44.4666 34.7526 44.4784 34.7787C44.4902 34.8047 44.5124 34.8543 44.5335 34.9046" stroke="#39271D" stroke-width="1.92229"/>
<path d="M44.2441 34.8164C44.2441 34.8174 44.2498 34.8253 44.2748 34.8482C44.293 34.8648 44.327 34.8867 44.3491 34.9013C44.3815 34.9212 44.4 34.9313 44.4111 34.9369C44.4143 34.9379 44.4127 34.9351 44.4111 34.9322" stroke="#39271D" stroke-width="1.92229"/>
<path d="M44.8018 34.7891H44.8086" stroke="#39271D" stroke-width="1.92229"/>
<path d="M44.8359 34.8016C44.8376 34.8016 44.8411 34.8011 44.8465 34.7993C44.8516 34.7954 44.8563 34.7916 44.8616 34.7894C44.8647 34.7887 44.8688 34.7887 44.8742 34.7937" stroke="#39271D" stroke-width="1.92229"/>
<path d="M44.4912 34.5742C44.4995 34.5742 44.5206 34.5756 44.543 34.583C44.5592 34.5884 44.5839 34.5999 44.6123 34.6151C44.6406 34.6302 44.6716 34.6493 44.6946 34.6656C44.7176 34.6818 44.7317 34.6946 44.7409 34.7036C44.7502 34.7126 44.7541 34.7174 44.7551 34.718" stroke="#39271D" stroke-width="1.92229"/>
</svg>
