<svg width="121" height="123" viewBox="0 0 121 123" fill="none" xmlns="http://www.w3.org/2000/svg">
<path d="M0.960938 121.829V12.7807H23.787L23.4827 38.6375L23.787 70.6774C35.785 62.742 41.5029 56.1073 48.7814 37.6587C48.8215 37.6082 48.8089 37.528 48.8459 37.4966C48.9084 37.4436 48.8903 37.3723 48.9228 37.3595C48.9726 37.34 49.078 37.3408 49.135 37.3471C49.1656 37.3504 49.1981 37.3568 49.2229 37.361C49.2473 37.3651 49.2793 37.3749 49.322 37.3849L49.3355 37.3881C49.3715 37.3965 49.399 37.4029 49.4297 37.4136C49.5021 37.4389 49.5355 37.4716 49.5838 37.4966C49.616 37.5134 49.6367 37.5299 49.6492 37.5477C49.6515 37.5503 49.6541 37.5537 49.6569 37.5574C49.6679 37.5715 49.679 37.5856 49.69 37.5998C51.9513 40.5218 52.4066 46.3506 54.2218 49.3175C69.9013 74.9449 78.542 90.0474 103.222 115.084C109.115 118.721 112.837 120.731 119.961 120.143V121.829H52.7001V120.143C64.6904 120.079 68.6074 118.384 67.3088 113.116C67.2183 109.502 56.1209 94.2577 36.7557 68.6374L35.9609 67.5859C30.6666 70.9483 27.3803 72.2788 24.3957 79.6711V113.397C24.5403 119.396 26.7091 120.971 34.7435 120.143V121.829H24.3957H0.960938Z" fill="#F9F4EE"/>
<path d="M105.079 19.2293C105.079 29.3187 96.2218 37.4977 85.2962 37.4977C74.3705 37.4977 65.5136 29.3187 65.5136 19.2293C65.5136 9.13998 74.3705 0.960938 85.2962 0.960938C96.2218 0.960938 105.079 9.13998 105.079 19.2293Z" fill="#F9F4EE"/>
<path d="M0.960938 121.829V12.7807H23.787L23.4827 38.6375L23.787 70.6774C35.785 62.742 41.5029 56.1073 48.7814 37.6587C48.8215 37.6082 48.8089 37.528 48.8459 37.4966C48.9084 37.4436 48.8903 37.3723 48.9228 37.3595C48.9726 37.34 49.078 37.3408 49.135 37.3471C49.1656 37.3504 49.1981 37.3568 49.2229 37.361C49.2473 37.3651 49.2793 37.3749 49.322 37.3849L49.3355 37.3881C49.3715 37.3965 49.399 37.4029 49.4297 37.4136C49.5021 37.4389 49.5355 37.4716 49.5838 37.4966C49.616 37.5134 49.6367 37.5299 49.6492 37.5477C49.6515 37.5503 49.6541 37.5537 49.6569 37.5574C49.6679 37.5715 49.679 37.5856 49.69 37.5998C51.9513 40.5218 52.4066 46.3506 54.2218 49.3175C69.9013 74.9449 78.542 90.0474 103.222 115.084C109.115 118.721 112.837 120.731 119.961 120.143V121.829H52.7001V120.143C64.6904 120.079 68.6074 118.384 67.3088 113.116C67.2183 109.502 56.1209 94.2577 36.7557 68.6374L35.9609 67.5859C30.6666 70.9483 27.3803 72.2788 24.3957 79.6711V113.397C24.5403 119.396 26.7091 120.971 34.7435 120.143V121.829H24.3957H0.960938Z" fill="#F9F4EE"/>
<path d="M105.079 19.2293C105.079 29.3187 96.2218 37.4977 85.2962 37.4977C74.3705 37.4977 65.5136 29.3187 65.5136 19.2293C65.5136 9.13998 74.3705 0.960938 85.2962 0.960938C96.2218 0.960938 105.079 9.13998 105.079 19.2293Z" fill="#F9F4EE"/>
<path d="M23.787 12.7807H0.960938V121.829H24.3957M23.787 12.7807H44.1782V14.1358C25.5886 11.7697 22.4718 19.7443 23.4827 38.6375M23.787 12.7807L23.4827 38.6375M48.7814 37.6587C41.5029 56.1073 35.785 62.742 23.787 70.6774L23.4827 38.6375M48.7814 37.6587C48.7625 37.6825 48.747 38.062 48.7435 38.0754M48.7814 37.6587C48.8215 37.6082 48.8089 37.528 48.8459 37.4966C48.9084 37.4436 48.8903 37.3723 48.9228 37.3595C48.9726 37.34 49.078 37.3408 49.135 37.3471C49.1656 37.3504 49.1981 37.3568 49.2229 37.361C49.2473 37.3651 49.2793 37.3749 49.322 37.3849L49.3355 37.3881C49.3715 37.3965 49.399 37.4029 49.4297 37.4136M49.6492 37.5477C49.6517 37.5509 49.6543 37.5542 49.6569 37.5574M49.6492 37.5477C49.6367 37.5299 49.616 37.5134 49.5838 37.4966C49.5355 37.4716 49.5021 37.4389 49.4297 37.4136M49.6492 37.5477C49.6515 37.5503 49.6541 37.5537 49.6569 37.5574M49.6569 37.5574C49.668 37.5715 49.679 37.5856 49.69 37.5998M49.6569 37.5574C49.6679 37.5724 49.6816 37.5935 49.69 37.5998M49.69 37.5998C51.9513 40.5218 52.4066 46.3506 54.2218 49.3175C69.9013 74.9449 78.542 90.0474 103.222 115.084C109.115 118.721 112.837 120.731 119.961 120.143V121.829H52.7001V120.143C64.6904 120.079 68.6074 118.384 67.3088 113.116C67.2183 109.502 56.1209 94.2577 36.7557 68.6374L35.9609 67.5859C30.6666 70.9483 27.3803 72.2788 24.3957 79.6711V113.397M49.69 37.5998C49.6956 37.6036 49.4113 37.4062 49.4297 37.4136M24.3957 121.829V113.397M24.3957 121.829H34.7435V120.143C26.7091 120.971 24.5403 119.396 24.3957 113.397M23.0205 13.7994C23.0358 13.7994 23.3367 13.7994 23.8017 13.7944C23.9736 13.7895 24.0154 13.7796 24.2032 13.7726C24.391 13.7657 24.7235 13.7619 25.0926 13.6902M23.7223 23.2497C23.7223 23.002 23.8205 22.2441 23.9781 21.8371C24.0941 21.5372 24.1989 21.4284 24.2721 21.2824C24.4002 21.0268 24.4421 20.8497 24.9618 19.9779C25.218 19.5481 25.5109 19.0966 25.8363 18.6993C25.9963 18.5039 26.1403 18.323 26.4523 17.9745C26.9275 17.4436 27.3059 17.11 27.4982 16.9343C27.8686 16.5959 28.4202 16.4018 28.5916 16.282C28.7333 16.1831 28.6582 16.0195 29.0739 15.7858C29.4149 15.594 30.0274 15.2648 30.3954 15.0707L30.4421 15.0461C31.0967 14.7009 31.361 14.5615 31.4245 14.4941C31.4555 14.4612 31.4633 14.4192 31.4344 14.3847C31.3603 14.2965 31.1557 14.269 30.8118 14.235C30.2113 14.1755 29.7754 14.2129 29.6188 14.1729C29.1329 14.0486 28.5671 13.9942 28.1688 14.0203C27.9217 14.0365 27.7018 14.0867 27.3639 14.0958C26.64 14.1152 26.0744 14.1533 25.7912 14.1711C25.3226 14.2005 24.9609 14.1573 24.8296 14.116C24.7697 14.0972 24.7195 14.0719 24.671 14.0452M24.671 14.0452C24.5743 13.9921 24.4845 13.9338 24.3394 13.9108M24.671 14.0452C24.9119 14.0209 25.1958 13.9956 25.522 13.9803C26.367 13.9407 26.7882 13.9027 26.671 13.8811C26.4576 13.8418 26.279 13.7845 26.1101 13.7857C25.5597 13.7896 25.2601 13.9409 24.9702 13.9395C24.7429 13.9383 24.4791 13.9217 24.3394 13.9108M24.671 14.0452C24.3789 14.0748 24.1502 14.103 23.9863 14.1107C23.8284 14.1181 23.7384 14.1298 23.6623 14.1101C23.5905 14.0916 23.6139 13.9492 23.6283 13.8457C23.6344 13.8021 23.6715 13.7833 23.7104 13.7728C23.8904 13.7239 24.2096 13.8085 24.4519 13.7687C24.7365 13.7219 25.0823 13.6769 25.8995 13.6736C26.0874 13.6633 26.2123 13.6394 26.3249 13.6252C26.4375 13.6111 26.5341 13.6076 26.6335 13.6041M24.3394 13.9108C24.3149 13.9069 24.2888 13.904 24.2608 13.9024C24.2142 13.8996 24.2531 13.9041 24.3394 13.9108ZM24.2545 15.2393C24.2545 15.2338 24.2545 15.2283 24.9123 15.216C25.3352 15.2081 26.0301 15.1974 26.6675 15.1861M26.6675 15.1861C27.0214 15.1799 27.3577 15.1734 27.6197 15.1671C28.4665 15.1467 28.6283 15.1173 28.6787 15.11C28.6874 15.1088 28.6428 15.0881 28.2733 15.0806C27.9816 15.0747 27.4854 15.0734 26.6675 15.1861ZM26.6675 15.1861C26.4492 15.2162 26.2081 15.2544 25.9418 15.3028C24.6777 15.5325 22.8684 15.992 22.7395 16.148C22.6107 16.304 24.2171 16.1427 25.0792 16.0595C25.9412 15.9764 26.0101 15.9764 25.836 16.0278C25.662 16.0791 25.2428 16.1818 24.8028 16.3203C23.9043 16.6031 23.398 16.8405 23.3146 16.9077C23.2587 16.9527 23.6661 17.0071 24.4198 16.9766C24.7965 16.9614 25.1553 16.8679 25.5043 16.7722C25.8534 16.6766 26.1804 16.5615 26.3306 16.501C26.4521 16.4521 25.9569 16.8085 25.239 17.4136C25.1049 17.5266 25.0201 17.6042 24.9618 17.6622M24.9618 17.6622C24.9527 17.6713 24.9442 17.6798 24.9363 17.688M24.9618 17.6622C24.8462 17.7951 24.7971 17.8493 24.8353 17.8025M24.9618 17.6622C25.0057 17.6118 25.0591 17.55 25.121 17.4781M24.9363 17.688C24.8924 17.7333 24.8656 17.7656 24.8411 17.7954C24.8389 17.798 24.837 17.8003 24.8353 17.8025M24.9363 17.688C25.0011 17.6145 25.063 17.5442 25.121 17.4781M24.9363 17.688C24.9033 17.7254 24.8696 17.7636 24.8353 17.8025M24.8353 17.8025C24.3855 18.3121 23.8335 18.9341 23.5003 19.3116C23.0434 19.8292 23.0243 19.858 23.0243 19.858C23.0243 19.858 23.0441 19.8306 23.8354 19.1351C24.6268 18.4396 26.1891 17.0775 27.0098 16.3662C27.8304 15.6549 27.862 15.6357 27.9479 15.6079M25.121 17.4781C25.2472 17.3316 25.4085 17.1431 25.5953 16.9229C25.762 16.7265 25.7295 16.7829 25.2775 17.2998C25.2297 17.3544 25.1772 17.4143 25.121 17.4781ZM28.4606 14.0646H29.1665C29.2918 14.0646 29.2282 14.0646 29.1627 14.0603C29.0314 14.0516 28.6784 13.9709 28.1485 13.867C28.0154 13.8409 27.9006 13.8276 27.8048 13.8221M27.8048 13.8221C27.5914 13.8098 27.4723 13.836 27.4553 13.8445C27.4239 13.8602 27.5597 13.8461 27.8048 13.8221ZM27.8048 13.8221C27.9497 13.808 28.1328 13.7904 28.3421 13.7736C28.6878 13.7458 29.1588 13.7582 29.4694 13.7472C29.9179 13.7313 30.2574 13.6915 30.8098 13.6899C31.1627 13.6889 31.6629 13.6851 31.9561 13.6785C32.2494 13.6719 32.3206 13.662 33.0143 13.6479C33.7081 13.6337 35.0222 13.6157 36.1071 13.61C37.1921 13.6044 38.0081 13.6115 38.4487 13.6134C38.8893 13.6152 38.9299 13.6114 39.2401 13.6095C40.1288 13.6039 40.6857 13.6403 40.5644 13.6932C40.4878 13.7266 40.4295 13.092 40.0236 13.1751C39.6177 13.2582 39.131 13.5334 38.7001 13.6237C37.856 13.8005 37.8616 13.3172 37.4827 13.3427C37.3187 13.3537 36.594 13.6094 36.2653 13.6237C35.5221 13.6562 35.01 13.0714 34.7435 13.0616C33.7199 13.0242 33.1599 13.6145 32.829 13.6518C32.2399 13.7184 32.2743 14.5291 31.5186 14.7322C31.2607 14.8015 31.1103 14.8679 30.7723 15.0336C30.023 15.4009 28.6525 15.0254 28.5273 15.0902C28.3338 15.1903 28.5552 16.0246 28.3522 15.8721C27.81 15.4649 26.9435 15.0148 27.1348 15.31M27.1348 15.31C26.9435 15.1309 28.37 16.1602 28.3522 16.1532C27.2802 15.7301 27.0009 15.3819 27.1348 15.31ZM27.1348 15.31C27.2867 15.2285 27.5884 15.1786 27.8048 15.0832C28.0763 14.9634 29.1049 14.7447 29.4694 14.4941C29.6664 14.3586 29.9122 13.1909 30.4827 13.0616C31.0414 12.935 32.1192 13.8378 32.4553 13.7736C32.8609 13.6962 33.1347 13.7776 33.5262 13.6899C34.0955 13.5624 35.3522 13.3427 35.3522 13.3427C35.3522 13.3427 35.3872 13.6155 35.3522 13.6155C35.1298 13.6155 34.94 13.2951 34.7435 13.3427C34.5824 13.3865 34.2821 14.0265 33.9446 14.0982M38.3008 13.5532C38.2047 13.0207 38.4191 13.5514 38.4918 13.5532M38.4918 13.5532C38.6496 13.5571 39.1656 13.1509 39.2401 13.1751C39.4021 13.2277 38.8066 13.5984 38.4918 13.5532ZM38.4918 13.5532C38.3422 13.5318 38.2118 13.3477 38.0914 13.3427M38.0914 13.3427C37.9813 13.3381 38.9212 13.06 39.3088 13.0616C40.024 13.0645 40.9003 13.3 41.1839 13.3427C41.3616 13.3724 40.9869 13.0379 41.1348 13.0616C41.2828 13.0854 41.6001 12.5878 42.0406 13.3427M38.0914 13.3427C37.9985 13.3415 37.618 12.9911 37.618 13.5532M38.0914 13.3427C38.1842 13.3439 38.0138 13.3587 38.0914 13.3427ZM38.0914 13.3427C38.1689 13.3266 38.1287 13.3757 38.0914 13.3427ZM40.6109 13.7222C40.6109 13.727 41.1726 13.7295 42.0406 13.7266C42.4568 13.7252 42.6134 13.6859 42.8174 13.6758C42.9811 13.6522 43.0875 13.6334 43.1581 13.6252C43.1958 13.6197 43.2372 13.6115 43.3121 13.5876M41.7435 13.7274C42.6691 12.9166 41.9283 13.6191 42.0479 13.6237C42.1097 13.6283 41.6808 13.0569 41.8311 13.0616C41.9813 13.0664 42.3391 13.0459 42.6566 13.0617M43.1726 13.9795C43.1726 14.0819 43.1964 13.7186 43.2653 13.9049M43.2653 13.9049C43.2939 14.0233 43.2546 13.9836 43.2653 13.9049ZM43.2653 13.9049C43.4728 12.3744 43.3003 13.1192 43.3121 13.1008M105.079 19.2293C105.079 29.3187 96.2218 37.4977 85.2962 37.4977C74.3705 37.4977 65.5136 29.3187 65.5136 19.2293C65.5136 9.13998 74.3705 0.960938 85.2962 0.960938C96.2218 0.960938 105.079 9.13998 105.079 19.2293Z" stroke="#F9F4EE" stroke-width="1.92229"/>
<path d="M49.4243 37.082C49.4254 37.082 49.4603 37.082 49.5189 37.0836C49.5431 37.0842 49.5561 37.0881 49.5766 37.0969C49.6258 37.118 49.6563 37.1373 49.6618 37.1423C49.6642 37.1449 49.6657 37.1476 49.6789 37.1755C49.6922 37.2034 49.717 37.2564 49.7406 37.3103" stroke="#F9F4EE" stroke-width="1.92229"/>
<path d="M49.416 37.2148C49.416 37.2159 49.4224 37.2244 49.4504 37.2488C49.4707 37.2667 49.5088 37.2902 49.5335 37.3058C49.5698 37.3271 49.5905 37.3379 49.6029 37.3439C49.6066 37.3449 49.6047 37.3419 49.6029 37.3388" stroke="#F9F4EE" stroke-width="1.92229"/>
<path d="M50.041 37.1875H50.0483" stroke="#F9F4EE" stroke-width="1.92229"/>
<path d="M50.0791 37.1998C50.0809 37.1998 50.0849 37.1993 50.0909 37.1972C50.0966 37.1928 50.1019 37.1884 50.1078 37.1859C50.1113 37.1851 50.1159 37.1851 50.1219 37.1909" stroke="#F9F4EE" stroke-width="1.92229"/>
<path d="M49.6934 36.959C49.7026 36.959 49.7262 36.9604 49.7513 36.9684C49.7694 36.9742 49.7971 36.9865 49.8289 37.0027C49.8606 37.0189 49.8953 37.0394 49.921 37.0568C49.9468 37.0742 49.9626 37.0879 49.9729 37.0975C49.9833 37.1072 49.9877 37.1123 49.9888 37.113" stroke="#F9F4EE" stroke-width="1.92229"/>
</svg>
